<svg height="20" viewBox="0 0 20 20" width="20" xmlns="http://www.w3.org/2000/svg"><path d="m10 0c5.5228475 0 10 4.4771525 10 10s-4.4771525 10-10 10-10-4.4771525-10-10 4.4771525-10 10-10zm0 1.39534884c-4.75221761 0-8.60465116 3.85243355-8.60465116 8.60465116 0 4.7522176 3.85243355 8.6046512 8.60465116 8.6046512 4.7522176 0 8.6046512-3.8524336 8.6046512-8.6046512 0-4.75221761-3.8524336-8.60465116-8.6046512-8.60465116zm2.2066229 5.44120525c.2663893-.26614379.6980926-.2659448.9642364.00044448.2661438.26638927.2659448.69809262-.0004444.96423641l-2.1954149 2.19276502 2.1954149 2.1930677c.2663892.2661438.2665882.6978471.0004444.9642364s-.6978471.2665883-.9642364.0004445l-2.1966229-2.1947486-2.19503375 2.1947486c-.23975034.2395294-.61340509.2633212-.87975736.0714864l-.08447905-.0719309c-.2661438-.2663893-.2659448-.6980926.00044447-.9642364l2.19482569-2.1930677-2.19482569-2.19276502c-.26638927-.26614379-.26658827-.69784714-.00044447-.96423641.26614379-.26638928.69784714-.26658827.96423641-.00044448l2.19503375 2.19344591z" fill="#555"/></svg>